<svg xmlns="http://www.w3.org/2000/svg" shape-rendering="geometricPrecision" text-rendering="geometricPrecision" image-rendering="optimizeQuality" fill-rule="evenodd" clip-rule="evenodd" viewBox="0 0 388 512.475"><path fill="#424242" fill-rule="nonzero" d="M2.907 144.733l25.183-11.294C58.416 84.197 97.9 48.953 144.021 28.268c46.63-20.913 99.991-26.919 157.461-17.452L325.592 0l18.325 40.858L18.325 186.893 0 146.035l2.907-1.302z"/><path fill="#fff" d="M132.378 74.527l51.766-23.219a3.403 3.403 0 014.486 1.704l6.816 15.198a3.398 3.398 0 01-1.706 4.481l-51.77 23.22a3.404 3.404 0 01-4.482-1.706l-6.814-15.193a3.41 3.41 0 011.708-4.487l-.004.002z"/><path fill="#373735" d="M18.895 408.957h23.856c3.611 0 6.566 2.962 6.566 6.568v28.148h22.761l3.442 23.835H49.317v28.152c0 3.604-2.962 6.566-6.566 6.566H18.895c-3.604 0-6.566-2.955-6.566-6.566v-80.135c0-3.613 2.954-6.568 6.566-6.568zm299.355 34.716h22.765v-28.148c0-3.613 2.955-6.568 6.566-6.568h23.854c3.614 0 6.569 2.96 6.569 6.568v80.135c0 3.608-2.96 6.566-6.569 6.566h-23.854c-3.608 0-6.566-2.955-6.566-6.566v-28.152h-26.208l3.443-23.835z"/><path fill="#0099CE" fill-rule="nonzero" d="M279.271 512.475H111.059c-9.104 0-16.787-3.611-22.602-9.427v-.031c-5.973-5.975-9.876-14.299-11.173-23.289L34.53 183.605h321.272l-42.758 296.123c-1.302 9.029-5.203 17.36-11.166 23.323-5.816 5.816-13.499 9.424-22.607 9.424z"/><path fill="#fff" d="M195.164 236.393c51.977 0 94.118 42.138 94.118 94.115 0 51.98-42.141 94.119-94.118 94.119-51.98 0-94.118-42.139-94.118-94.119 0-51.977 42.138-94.115 94.118-94.115z"/><path fill="#018100" d="M184.253 270.387l26.578-.089c4.806 0 8.076.853 11.228 4.955l7.502 13.398 7.61-4.697-13.11 22.942-26.499-.1 8.066-4.697-13.616-23.11a24.976 24.976 0 00-4.103-5.718 22.412 22.412 0 00-3.656-2.883v-.001zm6.411 111.159h-25.497c-5.639-.872-9.256-3.964-10.336-8.186-.922-3.676 0-5.37 1.585-8.532 1.913-3.776 4.162-7.423 6.323-11.099l28.233.099-.308 27.669v.049zm-40.63-9.91l-13.348-22.99c-2.408-4.152-3.31-7.423-1.298-12.229l7.858-13.2-7.868-4.232 26.38-.128 13.15 23.03-8.116-4.667-13.17 23.377a24.758 24.758 0 00-2.973 6.43 22.177 22.177 0 00-.634 4.59l.019.019zm92.072-60.053l12.794 22.05c2.081 5.301 1.268 9.998-1.903 13.021-2.715 2.646-4.647 2.705-8.185 2.903-4.222.228-8.503.1-12.774.07l-14.032-24.498 24.12-13.566-.02.02zm11.704 40.135l-13.21 23.06c-2.388 4.172-4.777 6.58-9.91 7.235l-15.36-.209.268 8.919-13.279-22.792 13.328-22.912v9.364l26.836-.267a24.786 24.786 0 007.036-.674 22.033 22.033 0 004.291-1.745v.021zm-98.464-51.125l12.704-22.099c3.568-4.459 8.027-6.055 12.249-4.866 3.647 1.041 4.667 2.676 6.61 5.639 2.309 3.538 4.341 7.313 6.451 11.029l-14.211 24.399-23.783-14.102h-.02z"/><path d="M68.137 174.849h283.714c-1.773-16.857-5.915-34.95-16.76-44.367l-6.457 19.837-.246-.147 1.657-23.202-7.114-4.173-23.885 9.892 19.365-11.805c-23.962-4.977-65.054 11.011-84.054 23.294-5.555 3.596-10.25 6.568-14.396 9.263l-18.06.422c-5.369-5.285-12.056-8.108-19.187-9.147-14.595-2.132-31.061 3.184-41.908 10.054-23.864-8.317-58.088 18.791-72.669 20.079zm259.956-84.156c2.244-10.831 4.815-21.565 7.963-32.227C350.329 54.028 383.137 74.98 388 88.739l-21.423 16.123c8.508-3.493 11.641-5.123 16.591-7a30.284 30.284 0 011.841 4.646c1.199 3.787 1.992 7.692.419 11.508-.144.314-.303.625-.477.922a10.325 10.325 0 01-6.048 4.694l-34.525 11.73a50.567 50.567 0 01-6.568-6.486c2.752-2.046 5.931-4.243 8.686-6.286l-12.184 3.683a32.316 32.316 0 00-21.273-9.229l-6.18-37.109a8.016 8.016 0 01.845-5.507c3.541-6.028 15.599-5.958 21.47-5.164l-1.095 25.494.014-.065z"/></svg>