<!DOCTYPE svg PUBLIC "-//W3C//DTD SVG 1.1//EN" "http://www.w3.org/Graphics/SVG/1.1/DTD/svg11.dtd">
<!-- Uploaded to: SVG Repo, www.svgrepo.com, Transformed by: SVG Repo Mixer Tools -->
<svg width="800px" height="800px" viewBox="0 0 20 20" xmlns="http://www.w3.org/2000/svg" fill="#000000">
<g id="SVGRepo_bgCarrier" stroke-width="0"/>
<g id="SVGRepo_tracerCarrier" stroke-linecap="round" stroke-linejoin="round"/>
<g id="SVGRepo_iconCarrier"> <g id="quality-4" transform="translate(-2 -2)"> <path id="secondary" fill="#ffffff" d="M12,3a7,7,0,1,0,7,7,7,7,0,0,0-7-7Zm1.24,8.75L12,11.15l-1.24.6L11,10.48l-1-.89,1.38-.19L12,8.25l.62,1.15L14,9.59l-1,.89Z"/> <path id="primary" d="M5.79,13.57,3,17.56l3.03.9L7.91,21l2.88-4.11" fill="none" stroke="#000000" stroke-linecap="round" stroke-linejoin="round" stroke-width="0.5"/> <path id="primary-2" data-name="primary" d="M18.21,13.57,21,17.56l-3.03.9L16.09,21l-2.88-4.11" fill="none" stroke="#000000" stroke-linecap="round" stroke-linejoin="round" stroke-width="0.5"/> <path id="primary-3" data-name="primary" d="M12.62,9.4,14,9.59l-1,.89.24,1.27L12,11.15l-1.24.6L11,10.48l-1-.89,1.38-.19L12,8.25ZM12,3a7,7,0,1,0,7,7,7,7,0,0,0-7-7Z" fill="none" stroke="#000000" stroke-linecap="round" stroke-linejoin="round" stroke-width="0.5"/> </g> </g>
</svg>