
        <svg xmlns="http://www.w3.org/2000/svg" xmlns:xlink="http://www.w3.org/1999/xlink" version="1.1" width="3461.5384615384614" height="3397.472097245607" viewBox="0 0 3461.5384615384614 3397.472097245607">
			
			<g transform="scale(23.076923076923077) translate(10, 10)">
				<defs id="SvgjsDefs2132"/><g id="SvgjsG2133" featureKey="symbolFeature-0" transform="matrix(1.38762411052548,0,0,1.38762411052548,-4.690602763137001,-34.690602763137)" fill="#fff"><title xmlns="http://www.w3.org/2000/svg">eye-fill 87</title><desc xmlns="http://www.w3.org/2000/svg">Created with Sketch.</desc><g xmlns="http://www.w3.org/2000/svg" stroke="none" stroke-width="1" fill-rule="evenodd" xmlns:sketch="http://www.bohemiancoding.com/sketch/ns" sketch:type="MSPage"><path d="M69.4571875,52.4171875 C68.4146875,52.1846875 67.4359375,52.8109375 67.1996875,53.8121875 C66.5321875,56.6546875 65.1259375,59.2084375 63.1346875,61.1959375 C60.2171875,64.1171875 56.3359375,65.7221875 52.2034375,65.7221875 C48.0784375,65.7221875 44.1971875,64.1171875 41.2721875,61.1959375 C35.2496875,55.1659375 35.2496875,45.3596875 41.2721875,39.3334375 C43.2634375,37.3421875 45.8134375,35.9359375 48.6559375,35.2684375 C49.6684375,35.0321875 50.2909375,34.0234375 50.0509375,33.0146875 C49.8184375,32.0096875 48.8284375,31.3834375 47.8009375,31.6196875 C44.2759375,32.4484375 41.0996875,34.1996875 38.6209375,36.6821875 C31.9346875,43.3684375 31.2634375,53.7821875 36.5209375,61.2746875 L25.5484375,72.2471875 C24.8171875,72.9784375 24.8171875,74.1634375 25.5484375,74.8984375 C25.9159375,75.2621875 26.3959375,75.4459375 26.8759375,75.4459375 C27.3521875,75.4459375 27.8321875,75.2621875 28.1996875,74.8984375 L38.9659375,64.1284375 C42.5584375,67.5596875 47.2234375,69.4721875 52.2034375,69.4721875 C57.3371875,69.4721875 62.1634375,67.4734375 65.7859375,63.8471875 C68.2721875,61.3646875 70.0196875,58.1921875 70.8484375,54.6746875 C71.0884375,53.6659375 70.4659375,52.6534375 69.4571875,52.4171875 M57.2996875,55.3571875 C54.5734375,58.0796875 49.8371875,58.0796875 47.1109375,55.3571875 C44.3021875,52.5484375 44.3021875,47.9771875 47.1109375,45.1684375 C48.5171875,43.7621875 50.3584375,43.0609375 52.2034375,43.0609375 C54.0521875,43.0609375 55.8971875,43.7621875 57.2996875,45.1684375 C58.6609375,46.5296875 59.4109375,48.3409375 59.4109375,50.2646875 C59.4109375,52.1884375 58.6609375,53.9959375 57.2996875,55.3571875 M74.8946875,25.5484375 C74.1634375,24.8171875 72.9746875,24.8171875 72.2434375,25.5484375 L57.2134375,40.5784375 C53.0921875,38.4521875 47.9096875,39.0671875 44.4596875,42.5171875 C40.1884375,46.7884375 40.1884375,53.7409375 44.4596875,58.0084375 C46.5296875,60.0784375 49.2784375,61.2184375 52.2034375,61.2184375 C55.1321875,61.2184375 57.8809375,60.0784375 59.9509375,58.0084375 C62.0209375,55.9421875 63.1609375,53.1896875 63.1609375,50.2646875 C63.1609375,47.4896875 62.1071875,44.8909375 60.2359375,42.8621875 L74.8946875,28.1996875 C75.6296875,27.4684375 75.6296875,26.2834375 74.8946875,25.5484375" sketch:type="MSShapeGroup"/></g></g><g id="SvgjsG2134" featureKey="nameFeature-0" transform="matrix(1.5479082422941661,0,0,1.5479082422941661,-2.256381068988883,62.93605754219821)" fill="#fff"><path d="M45.8 17.485 l5.8113 0 l-18.034 24.047 l-7.0424 -9.3888 l-7.0412 9.3888 l-18.036 -24.047 l5.8116 0 l12.224 16.298 l4.1356 -5.5148 l-8.088 -10.784 l5.8116 0 l5.1824 6.9096 l5.1816 -6.9096 l5.811 0 l-8.0872 10.784 l4.1364 5.5148 z M69.504 28.125999999999998 l15.938 -10.625 l0 22.5 l-4.6954 0 l0 -13.726 l-11.242 7.4944 l-11.242 -7.4944 l0 13.726 l-4.6954 0 l0 -22.5 z"/></g>
			</g>
		</svg>
	